<svg width="543" height="163" viewBox="0 0 543 163" fill="none" xmlns="http://www.w3.org/2000/svg">
<g clip-path="url(#clip0_2492_11573)">
<path d="M421.195 135.863H424.008L426.589 144.821C427.176 146.801 427.563 148.487 428.165 150.452H428.273C428.876 148.487 429.309 146.801 429.85 144.821L432.416 135.863H435.12L429.742 153.082H426.62L421.195 135.863Z" fill="white"/>
<path d="M439.015 150.854H443.219V138.091H439.015V135.863H450.066V138.091H445.862V150.854H450.066V153.082H439.015V150.854Z" fill="white"/>
<path d="M454.703 150.871L456.248 149.045C457.562 150.267 459.293 151.087 461.163 151.087C463.342 151.087 464.548 150.082 464.548 148.705C464.548 147.018 463.296 146.554 461.58 145.827L459.154 144.76C457.392 144.063 455.475 142.795 455.475 140.258C455.475 137.566 457.886 135.539 461.287 135.539C463.42 135.539 465.351 136.374 466.696 137.705L465.336 139.391C464.192 138.432 462.94 137.86 461.179 137.86C459.417 137.86 458.149 138.695 458.149 140.103C458.149 141.604 459.633 142.145 461.148 142.733L463.481 143.77C465.645 144.605 467.253 145.874 467.253 148.38C467.253 151.149 464.919 153.408 461.024 153.408C458.551 153.408 456.325 152.449 454.703 150.871Z" fill="white"/>
<path d="M471.812 150.854H476.015V138.091H471.812V135.863H482.862V138.091H478.658V150.854H482.862V153.082H471.812V150.854Z" fill="white"/>
<path d="M487.036 144.404C487.036 138.788 489.787 135.555 493.728 135.555C497.669 135.555 500.42 138.788 500.42 144.404C500.42 150.02 497.669 153.408 493.728 153.408C489.787 153.408 487.036 150.113 487.036 144.404ZM497.685 144.404C497.685 140.273 496.108 137.86 493.712 137.86C491.317 137.86 489.74 140.258 489.74 144.404C489.74 148.55 491.317 151.103 493.712 151.103C496.108 151.103 497.685 148.643 497.685 144.404Z" fill="white"/>
<path d="M504.284 135.863H507.097L512.12 146.105L513.727 149.725H513.789C513.681 147.992 513.433 145.919 513.433 144.063V135.863H515.953V153.082H513.14L508.117 142.841L506.509 139.22H506.447C506.556 141.015 506.803 142.98 506.803 144.821V153.082H504.284V135.863Z" fill="white"/>
<path d="M15.2854 57.5671C14.219 59.501 118.544 160.865 264.769 162.969C416.311 165.151 526.632 59.4391 525.612 57.5671C524.608 55.7261 416.203 154.476 265.959 152.79C120.028 151.15 16.3519 55.6642 15.2854 57.5671Z" fill="#0688D3"/>
<path d="M165.791 47.1866C164.354 40.9209 162.02 34.9492 158.914 29.4262C153.906 20.5305 147.399 13.646 138.821 7.75163C131.434 2.69268 122.64 0.078125 113.691 0.078125H47.8037V123.844H121.419C124.185 123.844 126.921 123.241 129.394 122.05C142.608 115.66 152.824 105.759 159.47 93.4597C163.149 86.6525 165.668 79.1647 166.781 71.3519C167.229 68.2578 167.461 65.1172 167.461 61.9457V61.1567C167.399 56.3917 166.827 51.7195 165.791 47.1866ZM134.03 71.3519C131.542 81.1759 125.854 87.983 122.5 91.3092C121.094 92.7016 119.193 93.4597 117.215 93.4597H84.4952V29.4262H113.907C118.312 29.4262 122.531 31.3291 125.344 34.7326C127.817 37.734 130.63 41.9111 132.639 47.1866C134.262 51.4875 135.359 56.5155 135.251 62.2087C135.189 65.504 134.741 68.5517 134.03 71.3519Z" fill="white"/>
<path d="M467.438 0.0773538H424.286C412.586 36.6967 400.886 73.3005 389.186 109.92C377.224 93.1495 365.261 76.3637 353.299 59.5934C366.142 39.7289 378.986 19.8645 391.829 0C377.966 0.0309415 364.102 0.0464123 350.238 0.0773538C343.33 12.0517 336.421 24.0416 329.512 36.0159C322.604 24.0416 315.695 12.0517 308.787 0.0773538H267.938V7.00826C279.9 25.1709 291.878 43.3336 303.841 61.4963C291.878 78.2666 279.9 95.0524 267.938 111.823V123.843C281.708 123.843 295.495 123.843 309.266 123.843L325.88 95.0214L329.111 89.421L332.341 95.0214L348.956 123.828C371.026 123.828 393.081 123.813 415.152 123.797L425.476 93.4744L433.003 71.3667L441.241 47.2013L446.465 31.8388L452.26 47.2013L461.364 71.3667L469.71 93.4744L481.131 123.782C492.8 123.782 504.485 123.766 516.154 123.766C499.91 82.5365 483.682 41.3224 467.438 0.0928246V0.0773538Z" fill="white"/>
<path d="M267.938 0.078125V29.4262H203.349V47.1866H262.683V71.3519H203.349V93.4597H267.938V123.844H167.461V0.078125H267.938Z" fill="white"/>
<path d="M0.231721 60.4439C-0.448323 60.2118 -0.108302 49.3668 7.29491 42.7763C13.709 37.0676 22.6268 37.0366 22.8587 37.7947C23.0905 38.5373 15.0536 39.6666 8.25315 46.6285C1.80819 53.2345 0.819032 60.645 0.231721 60.4439Z" fill="#0688D3"/>
<path d="M542.752 60.4439C543.433 60.2118 543.092 49.3668 535.689 42.7763C529.275 37.0676 520.357 37.0366 520.126 37.7947C519.894 38.5373 527.931 39.6666 534.731 46.6285C541.176 53.2345 542.181 60.645 542.752 60.4439Z" fill="#0688D3"/>
</g>
<defs>
<clipPath id="clip0_2492_11573">
<rect width="543" height="163" fill="white"/>
</clipPath>
</defs>
</svg>
